<svg width="64" height="64" viewBox="0 0 24 24" fill="none" xmlns="http://www.w3.org/2000/svg">
<path d="M10 21H14C16.8284 21 18.2426 21 19.1213 20.1213C20 19.2426 20 17.8284 20 15V9.0208C20 8.26895 20 7.89303 19.8694 7.54964C19.7389 7.20625 19.4891 6.92528 18.9896 6.36334L17.1934 4.34254C16.6058 3.68154 16.312 3.35104 15.9212 3.17552C15.5303 3 15.0881 3 14.2037 3H10C7.17157 3 5.75736 3 4.87868 3.87868C4 4.75736 4 6.17157 4 9V15C4 17.8284 4 19.2426 4.87868 20.1213C5.75736 21 7.17157 21 10 21Z" stroke="#57b2e4" stroke-width="1.2" class="my-path"/>
<path d="M14.5 3V6C14.5 6.46466 14.5 6.69698 14.5384 6.89018C14.6962 7.68356 15.3164 8.30376 16.1098 8.46157C16.303 8.5 16.5353 8.5 17 8.5H20" stroke="#57b2e4" stroke-width="1.2" class="my-path"/>
<path d="M13.5 14.5L15 16" stroke="#57b2e4" stroke-width="1.2" stroke-linecap="round" class="my-path"/>
<path d="M14 12.5C14 13.8807 12.8807 15 11.5 15C10.1193 15 9 13.8807 9 12.5C9 11.1193 10.1193 10 11.5 10C12.8807 10 14 11.1193 14 12.5Z" stroke="#57b2e4" stroke-width="1.2" class="my-path"/>
</svg>