<svg width="64px" height="64px" viewBox="0 0 24 25" fill="none" xmlns="http://www.w3.org/2000/svg">
<path d="M16 21.7925V15.7925C16 14.8625 16 14.3975 15.8978 14.016C15.6204 12.9807 14.8117 12.1721 13.7765 11.8947C13.395 11.7925 12.93 11.7925 12 11.7925C11.07 11.7925 10.605 11.7925 10.2235 11.8947C9.18827 12.1721 8.37962 12.9807 8.10222 14.016C8 14.3975 8 14.8625 8 15.7925V21.7925M16 21.7925H8M16 21.7925H20.25C20.9522 21.7925 21.3033 21.7925 21.5556 21.624C21.6648 21.551 21.7585 21.4572 21.8315 21.3481C22 21.0958 22 20.7447 22 20.0425V18.3925C22 17.8351 22 17.5564 21.9631 17.3232C21.7598 16.0395 20.753 15.0327 19.4693 14.8294C19.2361 14.7925 18.9574 14.7925 18.4 14.7925C18.0284 14.7925 17.8426 14.7925 17.6871 14.8171C16.8313 14.9526 16.1602 15.6238 16.0246 16.4796C16 16.6351 16 16.8209 16 17.1925V21.7925ZM8 21.7925V17.1925C8 16.8209 8 16.6351 7.97538 16.4796C7.83983 15.6238 7.16865 14.9526 6.31287 14.8171C6.1574 14.7925 5.9716 14.7925 5.6 14.7925C5.0426 14.7925 4.76389 14.7925 4.5307 14.8294C3.24702 15.0327 2.24025 16.0395 2.03693 17.3232C2 17.5564 2 17.8351 2 18.3925V20.0425C2 20.7447 2 21.0958 2.16853 21.3481C2.24149 21.4572 2.33524 21.551 2.44443 21.624C2.69665 21.7925 3.04777 21.7925 3.75 21.7925H8ZM15 6.79248C15 8.44933 13.6569 9.79248 12 9.79248C10.3431 9.79248 9 8.44933 9 6.79248C9 5.13563 10.3431 3.79248 12 3.79248C13.6569 3.79248 15 5.13563 15 6.79248ZM7 10.7925C7 11.8971 6.10457 12.7925 5 12.7925C3.89543 12.7925 3 11.8971 3 10.7925C3 9.68791 3.89543 8.79248 5 8.79248C6.10457 8.79248 7 9.68791 7 10.7925ZM21 10.7925C21 11.8971 20.1046 12.7925 19 12.7925C17.8954 12.7925 17 11.8971 17 10.7925C17 9.68791 17.8954 8.79248 19 8.79248C20.1046 8.79248 21 9.68791 21 10.7925Z" stroke="#57b2e4" stroke-width="1.2" class="my-path"/>
</svg>