<svg width="64" height="64" viewBox="0 0 24 24" fill="none" xmlns="http://www.w3.org/2000/svg">
<path d="M13.9999 9.99997C13.9999 11.1045 13.1045 11.9999 12 11.9999C10.8954 11.9999 10 11.1045 10 9.99997C10 8.89542 10.8954 8 12 8C13.1045 8 13.9999 8.89542 13.9999 9.99997Z" stroke="#57b2e4" stroke-width="1.2" class="my-path"/>
<path d="M10.0002 4.15488C10.9762 3.59135 11.4642 3.30959 12.0001 3.30957C12.536 3.30956 13.024 3.5913 14.0001 4.15477L17.7944 6.34521C18.7705 6.90871 19.2585 7.19046 19.5265 7.65456C19.7945 8.11866 19.7945 8.6822 19.7945 9.80928L19.7946 14.1902C19.7947 15.3172 19.7947 15.8808 19.5267 16.3449C19.2588 16.809 18.7708 17.0908 17.7947 17.6543L14.0005 19.845C13.0245 20.4085 12.5365 20.6903 12.0006 20.6903C11.4647 20.6903 10.9767 20.4086 10.0006 19.8451L6.20631 17.6547C5.23021 17.0912 4.74216 16.8094 4.47419 16.3453C4.20622 15.8812 4.20621 15.3177 4.20618 14.1906L4.20606 9.80971C4.20602 8.68263 4.20601 8.11909 4.47395 7.65498C4.74189 7.19086 5.22993 6.90908 6.206 6.34553L10.0002 4.15488Z" stroke="#57b2e4" stroke-width="1.2" class="my-path"/>
<path d="M12.0001 15C10.1851 15 8.65237 15.8714 8.16333 17.4076C8.03963 17.7961 7.97778 17.9904 8.09591 18.312C8.21405 18.6336 8.45609 18.7849 8.94017 19.0875L10.9401 20.3374C11.4556 20.6596 11.7133 20.8207 12.0001 20.8207C12.2869 20.8207 12.5446 20.6596 13.0601 20.3374L15.0601 19.0875C15.5441 18.7849 15.7862 18.6336 15.9043 18.312C16.0225 17.9904 15.9606 17.7961 15.8369 17.4076C15.3479 15.8714 13.8152 15 12.0001 15Z" stroke="#57b2e4" stroke-width="1.2" class="my-path"/>
</svg>